<svg width="121" height="39" viewBox="0 0 121 39" fill="none" xmlns="http://www.w3.org/2000/svg">
<path d="M14.8298 5.696C14.9364 5.73867 14.9898 5.792 14.9898 5.856C14.9898 5.92 14.9898 5.97333 14.9898 6.016C14.9898 6.144 14.9578 6.208 14.8938 6.208C14.7658 6.208 14.7018 6.24 14.7018 6.304C14.7231 6.368 14.7124 6.4 14.6698 6.4H14.6378C14.5524 6.4 14.4991 6.37867 14.4778 6.336C14.4778 6.37867 14.4458 6.4 14.3818 6.4C14.4244 6.44267 14.4778 6.464 14.5418 6.464C14.6058 6.44267 14.6484 6.45333 14.6698 6.496H14.5738C14.5524 6.51733 14.5418 6.528 14.5418 6.528C14.4778 6.50667 14.4458 6.496 14.4458 6.496C14.4671 6.496 14.4458 6.496 14.3818 6.496C14.4244 6.51733 14.4458 6.53867 14.4458 6.56C14.4671 6.58133 14.4991 6.592 14.5418 6.592H14.6378C14.6591 6.592 14.6058 6.61333 14.4778 6.656C14.3498 6.67733 14.3071 6.688 14.3498 6.688C14.4351 6.66667 14.4458 6.67733 14.3818 6.72C14.3391 6.76267 14.2858 6.784 14.2218 6.784C14.2218 6.86933 14.0404 6.93333 13.6778 6.976C13.3151 7.01867 12.9098 7.05067 12.4618 7.072C12.0138 7.072 11.5764 7.072 11.1498 7.072C10.7444 7.05067 10.4884 7.02933 10.3818 7.008C10.2538 8.13867 10.1364 9.25867 10.0298 10.368C9.92308 11.456 9.81642 12.544 9.70975 13.632C9.60308 14.72 9.48575 15.8293 9.35775 16.96C9.25108 18.0693 9.12308 19.2107 8.97375 20.384C8.78175 21.408 8.65375 22.4533 8.58975 23.52C8.54708 24.5867 8.39775 25.664 8.14175 26.752V26.72C8.12042 26.7413 8.10975 26.7947 8.10975 26.88C8.08842 26.8373 8.07775 26.784 8.07775 26.72C8.09908 26.6347 8.09908 26.5707 8.07775 26.528V26.592C8.03508 26.5707 8.01375 26.56 8.01375 26.56C8.03508 26.5387 8.02442 26.5067 7.98175 26.464V26.56C7.98175 26.5387 7.97108 26.5173 7.94975 26.496C7.94975 26.4747 7.94975 26.4427 7.94975 26.4C7.92842 26.3573 7.91775 26.3253 7.91775 26.304C7.89642 26.2827 7.88575 26.2293 7.88575 26.144C7.84308 26.2293 7.83242 26.3147 7.85375 26.4C7.89642 26.464 7.89642 26.5173 7.85375 26.56C7.81108 26.5387 7.80042 26.5173 7.82175 26.496C7.84308 26.4747 7.83242 26.4427 7.78975 26.4V26.56C7.76842 26.5387 7.74708 26.4853 7.72575 26.4C7.70442 26.3147 7.67242 26.2827 7.62975 26.304H7.11775C6.98975 26.304 6.87242 26.3147 6.76575 26.336C6.65908 26.336 6.58442 26.3253 6.54175 26.304C6.60575 26.368 6.63775 26.432 6.63775 26.496C6.63775 26.5387 6.63775 26.5813 6.63775 26.624C6.59508 26.6027 6.58442 26.6027 6.60575 26.624C6.62708 26.624 6.61642 26.624 6.57375 26.624V26.496C6.55242 26.5387 6.54175 26.5707 6.54175 26.592C6.56308 26.592 6.56308 26.6027 6.54175 26.624V26.56H6.47775V26.528C6.47775 26.528 6.44575 26.496 6.38175 26.432H6.34975L6.38175 26.464C6.38175 26.4853 6.39242 26.496 6.41375 26.496L6.38175 26.528V26.496H6.06175C5.97642 26.496 5.91242 26.4853 5.86975 26.464C5.84842 26.464 5.83775 26.4747 5.83775 26.496C5.83775 26.496 5.84842 26.496 5.86975 26.496L5.83775 26.464C5.81642 26.464 5.82708 26.496 5.86975 26.56C5.82708 26.5387 5.78442 26.5173 5.74175 26.496C5.69908 26.4533 5.66708 26.3893 5.64575 26.304C5.62442 26.3893 5.56042 26.432 5.45375 26.432C5.34708 26.432 5.21908 26.432 5.06975 26.432C4.94175 26.4107 4.81375 26.3893 4.68575 26.368C4.55775 26.3467 4.46175 26.3467 4.39775 26.368C4.33375 26.3893 4.32308 26.432 4.36575 26.496C4.40842 26.5387 4.40842 26.5813 4.36575 26.624V26.592L4.33375 26.56C4.33375 26.624 4.33375 26.656 4.33375 26.656C4.33375 26.6347 4.32308 26.6027 4.30175 26.56C4.28042 26.496 4.25908 26.4427 4.23775 26.4C4.17375 26.4427 4.16308 26.496 4.20575 26.56C4.26975 26.6027 4.30175 26.6347 4.30175 26.656C4.23775 26.656 4.18442 26.624 4.14175 26.56C4.12042 26.496 4.09908 26.4427 4.07775 26.4C4.03508 26.2933 3.97108 26.1547 3.88575 25.984C3.82175 25.792 3.80042 25.632 3.82175 25.504C3.86442 25.568 3.88575 25.568 3.88575 25.504C3.90708 25.44 3.91775 25.3867 3.91775 25.344L3.85375 25.44L3.82175 25.376C3.82175 25.3333 3.81108 25.28 3.78975 25.216C3.78975 25.1307 3.80042 25.0773 3.82175 25.056V24.96C3.80042 24.832 3.78975 24.7467 3.78975 24.704C3.78975 24.6613 3.80042 24.576 3.82175 24.448C3.86442 24.0427 3.88575 23.6587 3.88575 23.296C3.88575 22.912 3.92842 22.496 4.01375 22.048C4.12042 21.9413 4.17375 21.7493 4.17375 21.472C4.13108 21.5147 4.10975 21.5787 4.10975 21.664C4.10975 21.728 4.08842 21.7813 4.04575 21.824C4.04575 21.8667 4.03508 21.888 4.01375 21.888C3.99242 21.888 3.98175 21.8667 3.98175 21.824C4.00308 21.824 4.01375 21.8027 4.01375 21.76C4.01375 21.76 4.01375 21.7387 4.01375 21.696C4.01375 21.6747 4.02442 21.664 4.04575 21.664V21.312C4.04575 21.2693 4.05642 21.2267 4.07775 21.184C4.12042 21.12 4.14175 21.0773 4.14175 21.056C4.12042 21.0133 4.12042 20.96 4.14175 20.896V20.832C4.16308 20.8107 4.18442 20.736 4.20575 20.608C4.22708 20.4587 4.23775 20.2987 4.23775 20.128C4.25908 19.936 4.28042 19.7547 4.30175 19.584C4.32308 19.4133 4.33375 19.296 4.33375 19.232C4.39775 19.2107 4.44042 19.136 4.46175 19.008C4.50442 18.8587 4.52575 18.7093 4.52575 18.56C4.54708 18.3893 4.55775 18.24 4.55775 18.112C4.55775 17.9627 4.56842 17.888 4.58975 17.888C4.58975 17.6107 4.58975 17.2693 4.58975 16.864C4.61108 16.4587 4.69642 16.128 4.84575 15.872C4.86708 15.8507 4.87775 15.84 4.87775 15.84C4.85642 15.7547 4.84575 15.648 4.84575 15.52C4.82442 15.5627 4.81375 15.584 4.81375 15.584C4.81375 15.4987 4.81375 15.424 4.81375 15.36C4.83508 15.296 4.84575 15.2427 4.84575 15.2V15.232C4.84575 15.0827 4.84575 14.9013 4.84575 14.688C4.86708 14.4533 4.88842 14.2293 4.90975 14.016C4.95242 13.7813 4.98442 13.5573 5.00575 13.344C5.04842 13.1307 5.09108 12.9493 5.13375 12.8C5.09108 12.7147 5.09108 12.6187 5.13375 12.512C5.28308 11.552 5.35775 10.592 5.35775 9.632C5.35775 8.672 5.41108 7.712 5.51775 6.752C5.32575 6.752 5.18708 6.752 5.10175 6.752C5.01642 6.752 4.94175 6.752 4.87775 6.752C4.83508 6.73067 4.77108 6.70933 4.68575 6.688C4.62175 6.66667 4.50442 6.63467 4.33375 6.592H4.36575C4.28042 6.57067 4.19508 6.57067 4.10975 6.592C4.02442 6.61333 3.93908 6.624 3.85375 6.624C3.83242 6.60267 3.82175 6.58133 3.82175 6.56H3.50175C3.48042 6.56 3.46975 6.528 3.46975 6.464C3.32042 6.464 3.22442 6.45333 3.18175 6.432C3.13908 6.41067 3.01108 6.42133 2.79775 6.464C2.86175 6.4 2.86175 6.37867 2.79775 6.4C2.75508 6.4 2.69108 6.41067 2.60575 6.432C2.54175 6.45333 2.48842 6.464 2.44575 6.464C2.42442 6.464 2.46708 6.432 2.57375 6.368C2.36042 6.41067 2.24308 6.432 2.22175 6.432C2.20042 6.432 2.10442 6.432 1.93375 6.432C1.84842 6.432 1.75242 6.4 1.64575 6.336C1.53908 6.25067 1.41108 6.22933 1.26175 6.272C1.34708 6.272 1.35775 6.29333 1.29375 6.336C1.22975 6.35733 1.17642 6.37867 1.13375 6.4C1.09108 6.336 1.09108 6.304 1.13375 6.304H0.55775C0.579083 6.28267 0.600417 6.25067 0.62175 6.208C0.643083 6.144 0.675083 6.112 0.71775 6.112C0.71775 6.09067 0.68575 6.08 0.62175 6.08C0.664417 5.99467 0.74975 5.984 0.87775 6.048C0.984417 6.09067 1.05908 6.09067 1.10175 6.048C1.03775 6.00533 0.97375 5.984 0.90975 5.984C0.824417 5.96267 0.760417 5.93067 0.71775 5.888C0.824417 5.86667 0.931083 5.81333 1.03775 5.728C1.12308 5.62133 1.25108 5.536 1.42175 5.472C1.65642 5.38667 1.93375 5.32267 2.25375 5.28C2.59508 5.216 2.95775 5.17333 3.34175 5.152C3.72575 5.13067 4.10975 5.12 4.49375 5.12C4.89908 5.09867 5.28308 5.088 5.64575 5.088C5.73108 4.98133 5.79508 4.896 5.83775 4.832C5.90175 4.74667 5.98708 4.68267 6.09375 4.64C6.26442 4.59733 6.44575 4.61867 6.63775 4.704C6.85108 4.78933 7.05375 4.832 7.24575 4.832C7.73642 4.87466 8.19508 4.90667 8.62175 4.928C9.04842 4.928 9.47508 4.94933 9.90175 4.992C9.96575 4.992 10.0298 5.024 10.0938 5.088C10.1578 5.152 10.2004 5.184 10.2218 5.184C10.4778 5.184 10.7978 5.19467 11.1818 5.216C11.5871 5.216 12.0031 5.23733 12.4298 5.28C12.8778 5.30133 13.2938 5.33333 13.6778 5.376C14.0831 5.41867 14.4031 5.46133 14.6378 5.504C14.6591 5.504 14.7018 5.52533 14.7658 5.568C14.8511 5.61067 14.8724 5.65333 14.8298 5.696ZM5.06975 24.064C5.13375 24 5.14442 23.9253 5.10175 23.84C5.08042 23.7547 5.09108 23.6907 5.13375 23.648C5.09108 23.648 5.06975 23.6587 5.06975 23.68C5.06975 23.7013 5.04842 23.712 5.00575 23.712C4.98442 23.712 4.97375 23.6907 4.97375 23.648V23.936C4.99508 24.0213 5.02708 24.064 5.06975 24.064ZM4.87775 23.776C4.89908 23.776 4.88842 23.7653 4.84575 23.744C4.84575 23.6587 4.83508 23.6053 4.81375 23.584V23.648C4.81375 23.7333 4.79242 23.8187 4.74975 23.904C4.72842 23.968 4.74975 24.0427 4.81375 24.128V24.064C4.87775 24.064 4.90975 24.0427 4.90975 24V23.936H4.87775C4.87775 23.8933 4.87775 23.872 4.87775 23.872C4.89908 23.8507 4.89908 23.8187 4.87775 23.776ZM5.00575 23.264H4.94175C4.94175 23.2853 4.93108 23.296 4.90975 23.296C4.90975 23.296 4.90975 23.3067 4.90975 23.328C4.93108 23.328 4.95242 23.328 4.97375 23.328C5.01642 23.3067 5.05908 23.3067 5.10175 23.328V23.136H5.00575V23.264ZM4.04575 22.592C4.08842 22.5707 4.09908 22.5067 4.07775 22.4C4.05642 22.2933 4.04575 22.2187 4.04575 22.176C4.04575 22.2827 4.03508 22.3573 4.01375 22.4C3.99242 22.4427 4.00308 22.5067 4.04575 22.592ZM5.29375 24.256H5.26175V24.352V24.384V24.416V24.512H5.29375V24.256L5.32575 24.224C5.30442 24.224 5.29375 24.192 5.29375 24.128C5.29375 24.1067 5.28308 24.0853 5.26175 24.064C5.26175 24.0853 5.25108 24.1067 5.22975 24.128C5.22975 24.1493 5.24042 24.1813 5.26175 24.224L5.29375 24.256ZM5.19775 23.776C5.19775 23.8827 5.19775 23.936 5.19775 23.936H5.22975V23.904C5.22975 23.8827 5.24042 23.872 5.26175 23.872C5.21908 23.744 5.24042 23.648 5.32575 23.584H5.22975C5.22975 23.6907 5.21908 23.7547 5.19775 23.776ZM4.84575 23.264C4.84575 23.2213 4.85642 23.1787 4.87775 23.136C4.89908 23.072 4.88842 23.0187 4.84575 22.976C4.84575 23.0187 4.83508 23.072 4.81375 23.136C4.79242 23.1787 4.80308 23.2213 4.84575 23.264ZM5.00575 22.88C5.11242 22.816 5.12308 22.7627 5.03775 22.72H5.06975V22.688C5.02708 22.7093 5.00575 22.72 5.00575 22.72V22.88ZM4.55775 23.264C4.57908 23.264 4.58975 23.2533 4.58975 23.232C4.58975 23.2107 4.60042 23.2213 4.62175 23.264C4.62175 23.2213 4.63242 23.1893 4.65375 23.168C4.67508 23.1467 4.66442 23.136 4.62175 23.136H4.58975H4.62175C4.62175 23.136 4.62175 23.1253 4.62175 23.104V23.04C4.60042 23.04 4.58975 23.0613 4.58975 23.104V23.136C4.58975 23.1787 4.57908 23.2213 4.55775 23.264ZM5.42175 24.384C5.44308 24.384 5.45375 24.3947 5.45375 24.416L5.48575 24.352V24.256C5.44308 24.256 5.42175 24.2987 5.42175 24.384ZM5.10175 24.224C5.03775 24.16 5.01642 24.128 5.03775 24.128H5.00575L5.03775 24.224H5.10175ZM4.71775 24.256V24.192C4.71775 24.1493 4.70708 24.128 4.68575 24.128C4.70708 24.1707 4.70708 24.224 4.68575 24.288C4.68575 24.3307 4.69642 24.3733 4.71775 24.416V24.256ZM4.78175 24.224C4.78175 24.2453 4.77108 24.2773 4.74975 24.32C4.72842 24.3413 4.73908 24.3733 4.78175 24.416V24.224ZM5.45375 24.544H5.42175V24.608C5.42175 24.6507 5.43242 24.672 5.45375 24.672V24.544ZM7.91775 26.304C7.96042 26.304 7.97108 26.3253 7.94975 26.368C7.92842 26.3893 7.93908 26.4 7.98175 26.4C7.98175 26.3787 7.97108 26.368 7.94975 26.368C7.94975 26.3467 7.94975 26.3253 7.94975 26.304L7.91775 26.272V26.304ZM5.06975 24.064C5.04842 23.9787 5.04842 23.9253 5.06975 23.904V24.064ZM5.86975 26.592V26.56V26.592ZM5.19775 23.776V23.744V23.776ZM5.86975 26.56C5.86975 26.5387 5.86975 26.528 5.86975 26.528C5.89108 26.528 5.90175 26.5387 5.90175 26.56H5.86975ZM5.86975 26.496H5.90175H5.86975ZM16.661 16.832C16.6397 16.9813 16.5757 17.2373 16.469 17.6C16.3837 17.9413 16.277 18.336 16.149 18.784C16.0423 19.2107 15.925 19.6693 15.797 20.16C15.6903 20.6293 15.5943 21.0773 15.509 21.504C15.445 21.9307 15.4023 22.304 15.381 22.624C15.381 22.9227 15.4343 23.1147 15.541 23.2C15.669 23.328 15.8823 23.2853 16.181 23.072C16.4797 22.8587 16.8103 22.56 17.173 22.176C17.5357 21.7707 17.909 21.3227 18.293 20.832C18.6983 20.32 19.061 19.84 19.381 19.392C19.7223 18.944 20.0103 18.5493 20.245 18.208C20.501 17.8667 20.6503 17.664 20.693 17.6C20.7997 17.4507 20.917 17.3973 21.045 17.44C21.1943 17.4827 21.3223 17.568 21.429 17.696C21.5357 17.824 21.5997 17.984 21.621 18.176C21.6637 18.3467 21.6317 18.5067 21.525 18.656C21.077 19.3173 20.5863 20.0427 20.053 20.832C19.5197 21.6 18.9543 22.2933 18.357 22.912C17.7597 23.5307 17.1197 24 16.437 24.32C15.7757 24.6187 15.093 24.64 14.389 24.384C14.2397 24.32 14.0477 24.2347 13.813 24.128C13.5783 24.0213 13.3437 23.8507 13.109 23.616C12.8957 23.3813 12.7037 23.072 12.533 22.688C12.3837 22.304 12.309 21.8027 12.309 21.184C12.309 20.736 12.3623 20.2027 12.469 19.584C12.597 18.9653 12.757 18.368 12.949 17.792C13.141 17.1947 13.3543 16.6613 13.589 16.192C13.845 15.7227 14.101 15.4133 14.357 15.264C14.5277 15.1573 14.677 15.1253 14.805 15.168C14.9543 15.1893 15.125 15.2 15.317 15.2C15.5517 15.2 15.765 15.2533 15.957 15.36C16.1703 15.4453 16.341 15.5733 16.469 15.744C16.6183 15.8933 16.7143 16.064 16.757 16.256C16.7997 16.448 16.7677 16.64 16.661 16.832ZM18.229 12.288C18.229 12.6933 18.069 13.0453 17.749 13.344C17.429 13.6427 17.077 13.792 16.693 13.792C16.4583 13.792 16.2343 13.7067 16.021 13.536C15.829 13.344 15.6583 13.1413 15.509 12.928C15.3597 12.7147 15.2423 12.5227 15.157 12.352C15.0717 12.16 15.029 12.064 15.029 12.064C15.029 11.8507 15.1143 11.6587 15.285 11.488C15.477 11.296 15.6903 11.136 15.925 11.008C16.181 10.88 16.437 10.784 16.693 10.72C16.949 10.656 17.141 10.624 17.269 10.624C17.5677 10.624 17.8023 10.7307 17.973 10.944C18.1437 11.1573 18.229 11.5307 18.229 12.064V12.288ZM42.6735 16.736C42.6095 16.864 42.5135 17.056 42.3855 17.312C42.2575 17.5467 42.1508 17.696 42.0655 17.76C42.0868 17.7173 42.1082 17.6747 42.1295 17.632C42.1508 17.568 42.1615 17.5147 42.1615 17.472C42.0335 17.6427 41.9695 17.7493 41.9695 17.792C41.9695 17.8133 41.9695 17.8347 41.9695 17.856C41.9908 17.856 42.0015 17.8667 42.0015 17.888C42.0868 17.888 42.1615 17.8347 42.2255 17.728C42.2895 17.6213 42.3428 17.5467 42.3855 17.504C42.4068 17.504 42.4175 17.5147 42.4175 17.536C42.4175 17.5573 42.4068 17.568 42.3855 17.568C42.3855 17.568 42.3855 17.5787 42.3855 17.6H42.4175C42.3322 17.856 42.2575 18.0373 42.1935 18.144C42.1295 18.2507 42.0762 18.3467 42.0335 18.432C42.0548 18.3893 41.9375 18.5813 41.6815 19.008C41.4468 19.4347 41.1268 19.968 40.7215 20.608C40.3162 21.248 39.8468 21.9307 39.3135 22.656C38.7802 23.36 38.2362 23.968 37.6815 24.48C37.3188 24.8 36.9028 25.056 36.4335 25.248C35.9642 25.44 35.4308 25.536 34.8335 25.536C34.5348 25.536 34.2362 25.504 33.9375 25.44C33.6602 25.3547 33.3935 25.2053 33.1375 24.992C32.9028 24.7787 32.7108 24.5013 32.5615 24.16C32.4122 23.8187 32.3375 23.3707 32.3375 22.816C32.3375 22.2613 32.3588 21.7067 32.4015 21.152C32.4655 20.5973 32.4975 20.2027 32.4975 19.968V19.84C32.2842 20.1173 32.0388 20.5227 31.7615 21.056C31.4842 21.5893 31.1642 22.1227 30.8015 22.656C30.4602 23.168 30.0655 23.6267 29.6175 24.032C29.1908 24.416 28.7108 24.608 28.1775 24.608C27.2602 24.608 26.6522 24.2453 26.3535 23.52C26.0762 22.7947 25.9375 21.7493 25.9375 20.384V18.464C25.5535 18.976 25.1908 19.6267 24.8495 20.416C24.5082 21.184 24.1668 21.9413 23.8255 22.688C23.5055 23.4347 23.1748 24.0747 22.8335 24.608C22.4922 25.1413 22.1295 25.408 21.7455 25.408C21.3615 25.408 21.0095 25.3227 20.6895 25.152C20.3695 24.96 20.0922 24.7253 19.8575 24.448C19.6442 24.1707 19.4735 23.872 19.3455 23.552C19.2388 23.2107 19.1855 22.88 19.1855 22.56C19.1855 21.664 19.2602 20.8 19.4095 19.968C19.5588 19.1147 19.7508 18.1867 19.9855 17.184C20.0495 16.928 20.1348 16.6613 20.2415 16.384C20.3695 16.1067 20.5295 15.8613 20.7215 15.648C20.9348 15.4133 21.1802 15.2213 21.4575 15.072C21.7348 14.9227 22.0655 14.848 22.4495 14.848C22.7695 14.848 23.1108 14.8587 23.4735 14.88C23.8362 14.9013 24.0175 15.04 24.0175 15.296C24.0388 15.4667 24.0068 15.6587 23.9215 15.872C23.8362 16.0853 23.7402 16.3413 23.6335 16.64C23.3348 17.3653 23.1002 18.112 22.9295 18.88C22.7802 19.648 22.6842 20.416 22.6415 21.184C22.8975 20.7787 23.1748 20.2667 23.4735 19.648C23.7935 19.008 24.1348 18.3893 24.4975 17.792C24.8815 17.1947 25.2655 16.6933 25.6495 16.288C26.0548 15.8613 26.4708 15.648 26.8975 15.648C27.0468 15.648 27.1535 15.6587 27.2175 15.68C27.8362 15.8507 28.3055 16 28.6255 16.128C28.9668 16.2347 29.1695 16.5333 29.2335 17.024C29.3188 17.6853 29.3615 18.4747 29.3615 19.392C29.3615 20.288 29.4042 21.1307 29.4895 21.92C29.6815 21.7067 29.9268 21.312 30.2255 20.736C30.5242 20.16 30.8548 19.584 31.2175 19.008C31.5802 18.4107 31.9535 17.888 32.3375 17.44C32.7428 16.9707 33.1375 16.736 33.5215 16.736C33.7988 16.736 34.0762 16.7573 34.3535 16.8C34.6522 16.8427 34.9188 16.96 35.1535 17.152C35.4095 17.3227 35.6122 17.5893 35.7615 17.952C35.9322 18.3147 36.0175 18.816 36.0175 19.456C36.0175 19.776 36.0068 20.1387 35.9855 20.544C35.9642 20.928 35.9428 21.312 35.9215 21.696C35.9002 22.08 35.8788 22.432 35.8575 22.752C35.8362 23.072 35.8255 23.328 35.8255 23.52C35.8255 23.8187 35.8575 23.968 35.9215 23.968C36.1135 23.968 36.4228 23.7547 36.8495 23.328C37.2762 22.88 37.7455 22.3147 38.2575 21.632C38.7695 20.9493 39.3028 20.192 39.8575 19.36C40.4335 18.528 40.9668 17.7173 41.4575 16.928C41.4575 16.9707 41.4682 16.992 41.4895 16.992H41.5535C41.5962 16.992 41.6175 16.9493 41.6175 16.864C41.6388 16.7787 41.6708 16.7253 41.7135 16.704V16.736C41.7562 16.736 41.7988 16.7147 41.8415 16.672C41.8842 16.6293 41.9268 16.608 41.9695 16.608H42.0335C42.0762 16.608 42.1082 16.5973 42.1295 16.576C42.1508 16.5547 42.1935 16.5227 42.2575 16.48C42.2575 16.5227 42.2682 16.544 42.2895 16.544C42.2895 16.5653 42.3002 16.576 42.3215 16.576C42.3002 16.5973 42.2895 16.608 42.2895 16.608H42.3215C42.3642 16.608 42.3855 16.608 42.3855 16.608C42.4068 16.5867 42.4282 16.576 42.4495 16.576C42.4495 16.5973 42.4388 16.608 42.4175 16.608C42.4175 16.608 42.4175 16.6187 42.4175 16.64C42.4175 16.7253 42.4602 16.768 42.5455 16.768C42.5668 16.768 42.5882 16.768 42.6095 16.768C42.6308 16.7467 42.6522 16.736 42.6735 16.736ZM42.0015 18.08C42.0228 18.08 42.0335 18.0693 42.0335 18.048V17.984L41.7455 18.496C41.7455 18.4747 41.7775 18.3893 41.8415 18.24C41.9268 18.0693 41.9588 17.9733 41.9375 17.952C41.8735 18.0587 41.8095 18.1653 41.7455 18.272C41.6815 18.3787 41.6495 18.4853 41.6495 18.592C41.6708 18.592 41.6815 18.5813 41.6815 18.56L41.7135 18.528C41.7348 18.5493 41.7455 18.56 41.7455 18.56C41.7242 18.5813 41.7135 18.6027 41.7135 18.624C41.7135 18.6453 41.7028 18.6667 41.6815 18.688C41.7242 18.6453 41.7882 18.5707 41.8735 18.464C41.9588 18.336 42.0015 18.208 42.0015 18.08ZM41.0415 19.2C41.1055 19.0933 41.1375 19.0293 41.1375 19.008C41.1588 18.9653 41.1802 18.912 41.2015 18.848C41.1588 18.9547 41.0948 19.0507 41.0095 19.136C40.9455 19.2 40.8922 19.2853 40.8495 19.392C40.8708 19.392 40.8815 19.4027 40.8815 19.424C40.8815 19.4667 40.8495 19.5307 40.7855 19.616C40.7428 19.68 40.7002 19.7333 40.6575 19.776C40.7428 19.712 40.7962 19.6587 40.8175 19.616C40.8602 19.5733 40.9028 19.4987 40.9455 19.392C40.9455 19.3493 40.9668 19.328 41.0095 19.328C41.0522 19.3067 41.0735 19.2747 41.0735 19.232C41.0522 19.2107 41.0415 19.2 41.0415 19.2ZM40.4975 19.712C40.4548 19.7333 40.4228 19.776 40.4015 19.84C40.4015 19.8827 40.4015 19.9147 40.4015 19.936C40.4655 19.9147 40.4975 19.8827 40.4975 19.84C40.4975 19.8187 40.4868 19.808 40.4655 19.808C40.4655 19.808 40.4655 19.7973 40.4655 19.776C40.4655 19.7547 40.4655 19.744 40.4655 19.744C40.4868 19.744 40.4975 19.7333 40.4975 19.712ZM40.4335 20.384C40.4548 20.384 40.4655 20.352 40.4655 20.288V20.256C40.3802 20.3413 40.3375 20.3947 40.3375 20.416C40.3802 20.416 40.4015 20.3947 40.4015 20.352L40.4335 20.384ZM51.3015 16.704C51.3015 16.7467 51.3122 16.8 51.3335 16.864C51.3548 16.9067 51.3975 16.9387 51.4615 16.96C51.3975 17.024 51.3655 17.0667 51.3655 17.088C51.3655 17.1093 51.3762 17.1307 51.3975 17.152C51.4188 17.1733 51.4295 17.2053 51.4295 17.248C51.4295 17.2907 51.4188 17.3227 51.3975 17.344C51.3975 17.3653 51.3975 17.376 51.3975 17.376C51.4188 17.3547 51.4295 17.3547 51.4295 17.376C51.4295 17.44 51.4188 17.5253 51.3975 17.632C51.3762 17.7387 51.3228 17.8347 51.2375 17.92C51.2375 17.8987 51.2375 17.8667 51.2375 17.824C51.2375 17.7813 51.2588 17.7387 51.3015 17.696H51.2695C51.2268 17.696 51.1842 17.76 51.1415 17.888C51.0988 18.016 50.9282 18.368 50.6295 18.944C50.7362 18.88 50.8322 18.7733 50.9175 18.624C51.0028 18.4533 51.0882 18.304 51.1735 18.176V18.24C51.1735 18.2827 51.1522 18.3253 51.1095 18.368C51.0882 18.3893 51.0775 18.4213 51.0775 18.464C51.1842 18.3573 51.2588 18.24 51.3015 18.112C51.3442 17.9627 51.4188 17.7707 51.5255 17.536C51.5468 17.5573 51.5575 17.5787 51.5575 17.6V17.632V17.76C51.5788 17.76 51.5895 17.7813 51.5895 17.824C51.5895 17.888 51.5575 17.9413 51.4935 17.984C51.4508 18.0267 51.4295 18.0693 51.4295 18.112C51.4295 18.1333 51.4508 18.1653 51.4935 18.208C51.4295 18.4427 51.3015 18.72 51.1095 19.04C50.9388 19.3387 50.7362 19.6587 50.5015 20C50.2668 20.32 50.0215 20.64 49.7655 20.96C49.5308 21.28 49.3282 21.5467 49.1575 21.76C49.1362 21.7813 49.1148 21.792 49.0935 21.792C49.0722 21.792 49.0935 21.7173 49.1575 21.568C49.2428 21.4187 49.3175 21.3227 49.3815 21.28V21.344C49.5948 21.0667 49.8402 20.7253 50.1175 20.32C50.4162 19.9147 50.6722 19.5413 50.8855 19.2H50.8535V19.136L50.9815 19.008C51.0242 18.9653 51.0562 18.9227 51.0775 18.88C51.0775 18.9013 51.0668 18.9227 51.0455 18.944C51.1095 18.88 51.1308 18.816 51.1095 18.752C51.1095 18.688 51.1308 18.6453 51.1735 18.624V18.528C51.1308 18.528 51.0668 18.6027 50.9815 18.752C50.9175 18.9013 50.7788 19.1147 50.5655 19.392H50.6295C50.6082 19.4773 50.5335 19.5733 50.4055 19.68C50.2988 19.7653 50.1602 19.968 49.9895 20.288C49.9682 20.288 49.9575 20.2773 49.9575 20.256C49.9362 20.256 49.9255 20.2347 49.9255 20.192C49.9468 20.192 49.9148 20.256 49.8295 20.384C49.7442 20.512 49.6908 20.608 49.6695 20.672L49.6375 20.608C49.6162 20.6507 49.5735 20.736 49.5095 20.864C49.4668 20.9707 49.4242 21.0453 49.3815 21.088H49.3495C49.2642 21.216 49.1895 21.3013 49.1255 21.344L49.1575 21.408C49.1575 21.472 49.1255 21.5467 49.0615 21.632C49.0188 21.7173 48.9655 21.8133 48.9015 21.92C48.8375 22.0053 48.7842 22.08 48.7415 22.144C48.6988 22.1867 48.6775 22.208 48.6775 22.208C48.3788 22.5493 48.0375 22.912 47.6535 23.296C47.2695 23.6587 46.8535 23.9893 46.4055 24.288C45.9788 24.5867 45.5415 24.8427 45.0935 25.056C44.6455 25.248 44.2295 25.344 43.8455 25.344H43.8135C43.7922 25.344 43.7815 25.3333 43.7815 25.312C43.8028 25.312 43.8135 25.3013 43.8135 25.28V25.248C43.6855 25.248 43.5682 25.2587 43.4615 25.28C43.3548 25.3013 43.2482 25.312 43.1415 25.312C43.0988 25.312 43.0348 25.3013 42.9495 25.28C42.8642 25.2587 42.8002 25.248 42.7575 25.248C42.7362 25.248 42.7255 25.2587 42.7255 25.28C42.7468 25.3013 42.7362 25.312 42.6935 25.312C42.6722 25.2693 42.6082 25.248 42.5015 25.248H42.3735C42.2668 25.2053 42.1602 25.1733 42.0535 25.152C41.9682 25.1307 41.8722 25.0987 41.7655 25.056C41.8935 25.184 42.0535 25.2693 42.2455 25.312C42.4375 25.3333 42.6295 25.344 42.8215 25.344H43.1735C43.1308 25.3867 43.0988 25.3973 43.0775 25.376C43.0562 25.3547 43.0242 25.3653 42.9815 25.408C43.0882 25.408 43.1415 25.408 43.1415 25.408C43.1628 25.3867 43.1735 25.3973 43.1735 25.44C43.0028 25.44 42.7895 25.4293 42.5335 25.408C42.2988 25.3653 42.0748 25.312 41.8615 25.248C41.9042 25.2907 41.9468 25.3227 41.9895 25.344C42.0535 25.344 42.0962 25.3653 42.1175 25.408C42.0108 25.408 41.9255 25.3973 41.8615 25.376C41.7975 25.3333 41.7335 25.2907 41.6695 25.248H41.6375C41.6588 25.2907 41.6695 25.312 41.6695 25.312H41.6375C41.6162 25.312 41.6055 25.3013 41.6055 25.28L41.5735 25.248C41.4455 25.2693 41.3282 25.248 41.2215 25.184C41.1362 25.0987 41.0402 25.0453 40.9335 25.024C40.3788 24.512 39.9735 23.9467 39.7175 23.328C39.4615 22.688 39.3335 22.0267 39.3335 21.344C39.3335 20.6613 39.4828 19.936 39.7815 19.168C40.1015 18.3787 40.5175 17.6533 41.0295 16.992C41.5628 16.3093 42.1815 15.744 42.8855 15.296C43.5895 14.848 44.3362 14.624 45.1255 14.624C45.2748 14.624 45.3922 14.6453 45.4775 14.688C45.5628 14.7307 45.6375 14.784 45.7015 14.848C45.7655 14.8907 45.8295 14.944 45.8935 15.008C45.9788 15.072 46.0748 15.136 46.1815 15.2C46.1602 15.2 46.1495 15.1893 46.1495 15.168V15.104C46.1708 15.1467 46.1815 15.168 46.1815 15.168H46.2135C46.2348 15.168 46.2455 15.1573 46.2455 15.136C46.2455 15.1147 46.2348 15.104 46.2135 15.104C46.2135 15.0827 46.2135 15.0613 46.2135 15.04L46.3095 15.168C46.3308 15.168 46.3415 15.1573 46.3415 15.136V15.072C46.3842 15.1787 46.4055 15.296 46.4055 15.424C46.4055 15.5307 46.4268 15.6267 46.4695 15.712C46.5122 15.84 46.5868 16 46.6935 16.192C46.8215 16.3627 46.8855 16.6613 46.8855 17.088C46.8855 17.344 46.8322 17.6533 46.7255 18.016C46.6188 18.3787 46.4268 18.72 46.1495 19.04C45.8935 19.36 45.5202 19.6373 45.0295 19.872C44.5602 20.1067 43.9522 20.224 43.2055 20.224C42.9708 20.224 42.7468 20.2133 42.5335 20.192C42.3202 20.1707 42.1282 20.1387 41.9575 20.096C41.8295 20.48 41.7655 20.8213 41.7655 21.12C41.7655 21.7387 41.9575 22.208 42.3415 22.528C42.7255 22.848 43.2268 23.008 43.8455 23.008C44.5068 23.008 45.1255 22.8373 45.7015 22.496C46.2775 22.1547 46.8428 21.7067 47.3975 21.152C47.9522 20.576 48.5175 19.9253 49.0935 19.2C49.6908 18.4533 50.3308 17.6747 51.0135 16.864C51.0348 16.864 51.0775 16.8427 51.1415 16.8C51.2055 16.736 51.2588 16.704 51.3015 16.704ZM43.6855 16.64C43.4082 16.9387 43.1522 17.28 42.9175 17.664C42.6828 18.0267 42.5015 18.3893 42.3735 18.752C42.5015 18.6667 42.7042 18.5387 42.9815 18.368C43.2802 18.1973 43.5895 17.9947 43.9095 17.76C44.2295 17.5253 44.5282 17.2693 44.8055 16.992C45.0828 16.6933 45.2642 16.384 45.3495 16.064C45.2855 16.0427 45.1788 16.032 45.0295 16.032C44.7735 16.032 44.5282 16.096 44.2935 16.224C44.0588 16.352 43.8562 16.4907 43.6855 16.64ZM50.0215 19.68C50.0428 19.5947 50.0748 19.5307 50.1175 19.488C50.1602 19.424 50.2028 19.36 50.2455 19.296C50.1388 19.3387 50.0642 19.424 50.0215 19.552C50.0002 19.68 49.9468 19.7973 49.8615 19.904V19.968C49.8615 19.9467 49.8188 20 49.7335 20.128C49.6482 20.256 49.5842 20.352 49.5415 20.416C49.6055 20.3093 49.6695 20.1813 49.7335 20.032C49.8188 19.8827 49.8722 19.744 49.8935 19.616C49.8508 19.68 49.8188 19.712 49.7975 19.712V19.616C49.7122 19.7227 49.6482 19.8507 49.6055 20C49.5628 20.1493 49.4775 20.3093 49.3495 20.48L49.3175 20.416C49.2748 20.5227 49.2322 20.5973 49.1895 20.64C49.1468 20.6827 49.1255 20.7467 49.1255 20.832V20.864C49.1255 20.864 49.1468 20.8427 49.1895 20.8C49.1895 20.7787 49.2002 20.768 49.2215 20.768H49.2855C49.2428 20.7893 49.2215 20.8213 49.2215 20.864C49.2215 20.8853 49.2002 20.9173 49.1575 20.96C49.2428 20.9173 49.2962 20.864 49.3175 20.8C49.3388 20.7147 49.3815 20.6507 49.4455 20.608C49.4668 20.6293 49.4882 20.64 49.5095 20.64C49.5095 20.5973 49.5308 20.544 49.5735 20.48C49.6162 20.4373 49.6482 20.384 49.6695 20.32C49.7122 20.256 49.7655 20.1813 49.8295 20.096C49.8082 20.096 49.8082 20.1067 49.8295 20.128C49.8722 20.128 49.8828 20.1493 49.8615 20.192C49.8828 20.1493 49.9042 20.1173 49.9255 20.096C49.9468 20.0747 49.9682 20.0427 49.9895 20V19.936C49.9895 19.8933 49.9895 19.8613 49.9895 19.84C50.0108 19.8187 50.0215 19.7867 50.0215 19.744V19.68ZM50.5335 18.72C50.5122 18.72 50.5015 18.7093 50.5015 18.688C50.5015 18.6453 50.5655 18.5387 50.6935 18.368C50.8428 18.176 50.9388 18.0373 50.9815 17.952C50.8748 18.0587 50.7042 18.24 50.4695 18.496C50.2562 18.7307 50.1495 18.9653 50.1495 19.2V19.296C50.1708 19.2747 50.1922 19.232 50.2135 19.168C50.2562 19.0827 50.2988 19.04 50.3415 19.04C50.3628 19.04 50.3735 19.072 50.3735 19.136C50.4162 19.0507 50.4375 18.976 50.4375 18.912C50.4375 18.848 50.4695 18.784 50.5335 18.72ZM44.9015 14.976C44.8162 14.976 44.7308 14.9867 44.6455 15.008C44.6242 14.9867 44.6135 14.976 44.6135 14.976V14.944C44.5708 14.9653 44.4642 15.008 44.2935 15.072C44.1228 15.1147 43.9948 15.1787 43.9095 15.264C44.1228 15.2213 44.3042 15.1573 44.4535 15.072C44.4962 15.072 44.5282 15.0827 44.5495 15.104C44.5922 15.104 44.6348 15.104 44.6775 15.104C44.7202 15.104 44.7628 15.0933 44.8055 15.072C44.8482 15.0507 44.8695 15.0293 44.8695 15.008L44.9015 14.976ZM44.4215 14.944C44.1015 15.008 43.8242 15.1573 43.5895 15.392C43.8028 15.2427 44.0375 15.1253 44.2935 15.04C44.5495 14.9333 44.8162 14.88 45.0935 14.88C45.0508 14.8587 45.0082 14.848 44.9655 14.848C44.9228 14.8693 44.8695 14.88 44.8055 14.88C44.7842 14.8587 44.7522 14.848 44.7095 14.848C44.6668 14.848 44.6028 14.8587 44.5175 14.88C44.4535 14.9013 44.4215 14.9227 44.4215 14.944ZM46.4055 15.776C46.4055 15.8827 46.4268 15.9787 46.4695 16.064C46.5122 16.128 46.5548 16.2027 46.5975 16.288C46.5548 16.2027 46.5335 16.1173 46.5335 16.032C46.5762 16.0747 46.6082 16.1387 46.6295 16.224C46.6508 16.288 46.6828 16.3413 46.7255 16.384C46.7255 16.32 46.6828 16.2133 46.5975 16.064C46.5335 15.9147 46.4695 15.8187 46.4055 15.776ZM44.8055 14.72C44.8055 14.7627 44.7628 14.784 44.6775 14.784C44.5922 14.7627 44.5602 14.7733 44.5815 14.816L45.1255 14.72C45.0188 14.6987 44.9335 14.688 44.8695 14.688L44.8055 14.72ZM41.0615 25.152C41.0402 25.1307 41.0082 25.12 40.9655 25.12C40.9442 25.0987 40.9335 25.0667 40.9335 25.024C40.9762 25.0453 40.9975 25.0667 40.9975 25.088C41.0188 25.1093 41.0402 25.1307 41.0615 25.152ZM56.7405 6.752C57.3378 6.496 57.9245 6.38933 58.5005 6.432C59.0978 6.45333 59.6312 6.54933 60.1005 6.72C60.5698 6.89067 60.9432 7.104 61.2205 7.36C61.4978 7.616 61.6258 7.85067 61.6045 8.064C61.5832 8.34133 61.4232 8.512 61.1245 8.576C60.8472 8.61867 60.5912 8.58667 60.3565 8.48C60.1005 8.39467 59.7165 8.56533 59.2045 8.992C58.6925 9.41867 58.1485 9.952 57.5725 10.592C57.0178 11.232 56.4845 11.9253 55.9725 12.672C55.4605 13.3973 55.0765 14.016 54.8205 14.528C54.3512 15.424 53.9672 16.448 53.6685 17.6C53.3912 18.7307 53.2525 19.8507 53.2525 20.96C53.2525 21.6427 53.3058 22.2933 53.4125 22.912C53.5192 23.5307 53.7005 24.0747 53.9565 24.544C54.2125 25.0133 54.5645 25.3867 55.0125 25.664C55.4605 25.9413 56.0258 26.08 56.7085 26.08C57.4125 26.08 57.9778 26.0267 58.4045 25.92C58.8525 25.8133 59.3432 25.632 59.8765 25.376C59.8978 25.3973 59.8978 25.4293 59.8765 25.472C59.8552 25.5147 59.8552 25.536 59.8765 25.536C59.9832 25.536 60.0578 25.5467 60.1005 25.568L59.9725 25.696L59.9405 25.76C60.0045 25.7813 60.0365 25.792 60.0365 25.792C60.0365 25.792 60.0472 25.8133 60.0685 25.856C60.0685 25.92 60.1218 25.9307 60.2285 25.888C60.2712 25.888 60.3138 25.8987 60.3565 25.92L60.2285 26.048C60.3138 26.048 60.3565 26.08 60.3565 26.144C60.0365 26.4213 59.6632 26.656 59.2365 26.848C58.8312 27.04 58.3938 27.2 57.9245 27.328C57.4765 27.456 57.0072 27.552 56.5165 27.616C56.0258 27.6587 55.5565 27.68 55.1085 27.68C52.8045 27.68 51.0978 27.0507 49.9885 25.792C48.9005 24.5333 48.3565 22.7947 48.3565 20.576C48.3565 19.1467 48.6018 17.7067 49.0925 16.256C49.5832 14.8053 50.2232 13.4507 51.0125 12.192C51.8018 10.912 52.6978 9.80267 53.7005 8.864C54.7032 7.904 55.7165 7.2 56.7405 6.752ZM72.6385 20.672C72.5958 20.736 72.5318 20.864 72.4465 21.056C72.3612 21.2267 72.2865 21.312 72.2225 21.312C72.2225 21.2693 72.1905 21.2907 72.1265 21.376C72.0625 21.44 72.0305 21.504 72.0305 21.568C71.9665 21.6747 71.9238 21.76 71.9025 21.824C71.8812 21.8667 71.8492 21.92 71.8065 21.984C71.8278 21.984 71.8172 22.016 71.7745 22.08C71.7318 22.144 71.6998 22.1653 71.6785 22.144C71.6572 22.1867 71.6252 22.24 71.5825 22.304C71.5398 22.368 71.4972 22.4213 71.4545 22.464C71.2625 22.6773 71.0918 22.88 70.9425 23.072C70.8145 23.2427 70.6865 23.392 70.5585 23.52C70.4518 23.648 70.3772 23.7227 70.3345 23.744C70.2705 23.7867 70.2065 23.8187 70.1425 23.84C70.0785 23.8613 70.0145 23.9253 69.9505 24.032C69.7798 24.224 69.6305 24.3413 69.5025 24.384C69.3745 24.4267 69.1932 24.5013 68.9585 24.608C68.6812 24.672 68.5105 24.704 68.4465 24.704C68.3825 24.6827 68.3292 24.672 68.2865 24.672C67.8598 24.8213 67.4545 24.736 67.0705 24.416C66.7078 24.096 66.4518 23.744 66.3025 23.36C66.1958 23.104 66.1105 22.7733 66.0465 22.368C66.0038 21.9627 65.9718 21.536 65.9505 21.088C65.9292 20.6187 65.9185 20.16 65.9185 19.712C65.9398 19.2427 65.9612 18.816 65.9825 18.432C65.9398 18.4747 65.9078 18.5387 65.8865 18.624C65.8652 18.688 65.8545 18.7307 65.8545 18.752C65.7265 19.1573 65.5452 19.6267 65.3105 20.16C65.0758 20.672 64.8198 21.1733 64.5425 21.664C64.2865 22.1333 64.0412 22.528 63.8065 22.848C63.5718 23.168 63.4012 23.3173 63.2945 23.296C63.1878 23.4027 63.1025 23.5093 63.0385 23.616C62.9958 23.7013 62.9212 23.776 62.8145 23.84C62.3665 24.0533 61.9185 24 61.4705 23.68C61.2358 23.5093 61.0652 23.3067 60.9585 23.072C60.8732 22.8373 60.8305 22.5813 60.8305 22.304C60.8945 21.3013 61.0972 20.3627 61.4385 19.488C61.8012 18.592 62.1958 17.8027 62.6225 17.12C62.9425 16.6293 63.3052 16.1493 63.7105 15.68C64.1372 15.2107 64.6598 14.8267 65.2785 14.528C65.6198 14.3573 66.0358 14.3253 66.5265 14.432C67.0172 14.5173 67.4332 14.656 67.7745 14.848C67.9238 14.9333 67.9878 15.008 67.9665 15.072C67.9452 15.136 67.9345 15.1787 67.9345 15.2C67.8492 15.328 67.7425 15.3707 67.6145 15.328C67.6145 15.4347 67.6358 15.4987 67.6785 15.52C67.7212 15.52 67.7425 15.5627 67.7425 15.648C67.7212 15.7547 67.6998 15.8293 67.6785 15.872C67.6785 15.9147 67.6785 15.9893 67.6785 16.096C67.6785 16.1387 67.6785 16.1813 67.6785 16.224C67.6785 16.2453 67.6678 16.352 67.6465 16.544C67.6465 17.056 67.6465 17.6853 67.6465 18.432C67.6465 19.1573 67.6572 19.8827 67.6785 20.608C67.6998 21.312 67.7318 21.952 67.7745 22.528C67.8385 23.104 67.9132 23.488 67.9985 23.68C68.1052 23.7653 68.2972 23.7013 68.5745 23.488C68.8518 23.2533 69.1612 22.944 69.5025 22.56C69.8438 22.176 70.2065 21.7387 70.5905 21.248C70.9958 20.7573 71.3692 20.288 71.7105 19.84C72.0518 19.3707 72.3505 18.944 72.6065 18.56C72.8838 18.176 73.0758 17.8987 73.1825 17.728C73.2465 17.6427 73.3105 17.5467 73.3745 17.44C73.4598 17.312 73.5345 17.216 73.5985 17.152C73.6838 17.088 73.7478 17.0667 73.7905 17.088C73.8545 17.088 73.9078 17.1627 73.9505 17.312C73.9718 17.376 74.0038 17.4293 74.0465 17.472C74.0892 17.5147 74.1212 17.5893 74.1425 17.696C74.2065 18.0373 74.1638 18.3787 74.0145 18.72L73.8865 19.008C73.7585 19.0507 73.7052 19.104 73.7265 19.168C73.7692 19.2107 73.7265 19.296 73.5985 19.424C73.5558 19.5307 73.4918 19.6267 73.4065 19.712C73.3425 19.776 73.2892 19.8507 73.2465 19.936V19.872C73.2892 19.7867 73.3318 19.7227 73.3745 19.68C73.3318 19.68 73.3318 19.6373 73.3745 19.552C73.3532 19.5947 73.3318 19.6267 73.3105 19.648C73.2892 19.648 73.2678 19.6587 73.2465 19.68C73.2465 19.7013 73.2358 19.7333 73.2145 19.776C73.1932 19.7973 73.1825 19.7867 73.1825 19.744L72.8945 20.16C72.7665 20.288 72.6812 20.3947 72.6385 20.48C72.6172 20.544 72.5318 20.6613 72.3825 20.832L72.4145 20.864C72.4572 20.8213 72.4892 20.768 72.5105 20.704C72.5532 20.64 72.6065 20.608 72.6705 20.608V20.64L72.6385 20.672ZM62.6225 22.752C62.6652 22.7947 62.6972 22.784 62.7185 22.72C63.3158 21.6107 63.8705 20.576 64.3825 19.616C64.8945 18.656 65.4598 17.6107 66.0785 16.48C66.0998 16.352 66.1745 16.192 66.3025 16C66.4518 15.808 66.5585 15.6907 66.6225 15.648C66.4518 15.7547 66.2598 15.9147 66.0465 16.128C65.8332 16.3413 65.6198 16.5867 65.4065 16.864C65.2145 17.1413 65.0118 17.44 64.7985 17.76C64.6065 18.08 64.4358 18.4 64.2865 18.72C63.9665 19.3387 63.6465 20.0213 63.3265 20.768C63.0278 21.5147 62.7932 22.176 62.6225 22.752ZM71.7745 20.896C71.7318 20.8747 71.7425 20.8427 71.8065 20.8C71.8918 20.736 71.9345 20.6933 71.9345 20.672C71.9558 20.6507 71.9665 20.608 71.9665 20.544C71.9665 20.5227 71.9558 20.512 71.9345 20.512L71.8705 20.576C71.8065 20.64 71.7638 20.6933 71.7425 20.736C71.8065 20.672 71.8278 20.6613 71.8065 20.704C71.7852 20.7253 71.7532 20.7787 71.7105 20.864C71.7318 20.8213 71.6892 20.8853 71.5825 21.056C71.4758 21.2053 71.3905 21.3333 71.3265 21.44H71.3585C71.3372 21.4613 71.3265 21.472 71.3265 21.472C71.3692 21.472 71.4225 21.4293 71.4865 21.344C71.5718 21.2373 71.6038 21.1627 71.5825 21.12C71.5825 21.12 71.6145 21.12 71.6785 21.12C71.7212 21.0347 71.7425 20.992 71.7425 20.992C71.7638 20.9707 71.7745 20.9387 71.7745 20.896ZM71.7745 21.376C71.8385 21.3333 71.8812 21.2907 71.9025 21.248C71.9238 21.2053 71.9558 21.1627 71.9985 21.12C72.0412 21.0133 72.0625 20.9707 72.0625 20.992C72.0625 20.992 72.0412 20.9707 71.9985 20.928C71.9558 20.9707 71.9025 21.0347 71.8385 21.12C71.7745 21.184 71.7212 21.2693 71.6785 21.376C71.6572 21.3333 71.6465 21.3227 71.6465 21.344C71.6465 21.3653 71.6358 21.376 71.6145 21.376H71.5825V21.408L71.6465 21.472V21.504C71.6678 21.504 71.6892 21.472 71.7105 21.408C71.7532 21.3227 71.7852 21.28 71.8065 21.28L71.7745 21.376ZM64.9585 19.328V19.296L64.9265 19.264C64.9052 19.2853 64.8945 19.296 64.8945 19.296L65.0225 19.104V19.04C64.9798 19.0827 64.9585 19.1147 64.9585 19.136C64.9585 19.1147 64.9372 19.104 64.8945 19.104C64.8945 19.0613 64.8838 19.0827 64.8625 19.168C64.8412 19.232 64.8092 19.296 64.7665 19.36C64.7665 19.36 64.8092 19.3387 64.8945 19.296L64.8305 19.392L64.5425 19.712C64.5852 19.7333 64.6065 19.7333 64.6065 19.712C64.6278 19.6693 64.6705 19.6587 64.7345 19.68L64.9585 19.328ZM71.5825 22.048C71.6465 21.9413 71.7105 21.8773 71.7745 21.856C71.7318 21.8133 71.7318 21.7813 71.7745 21.76C71.8172 21.7387 71.8172 21.7067 71.7745 21.664L71.7425 21.696C71.7852 21.632 71.8065 21.6 71.8065 21.6C71.8278 21.5787 71.8385 21.5253 71.8385 21.44C71.7958 21.5467 71.7425 21.632 71.6785 21.696C71.6145 21.76 71.5612 21.8133 71.5185 21.856C71.5612 21.8773 71.5612 21.9093 71.5185 21.952C71.4758 21.9733 71.4972 22.0053 71.5825 22.048C71.5185 22.048 71.4865 22.0693 71.4865 22.112C71.4438 22.112 71.4438 22.144 71.4865 22.208L71.5825 22.048ZM73.1505 19.904V19.936H73.2465C73.1825 20 73.1505 20.0533 73.1505 20.096C73.1505 20.1387 73.1078 20.1707 73.0225 20.192C73.0652 20.192 73.0652 20.2133 73.0225 20.256C72.9798 20.2773 72.9585 20.2773 72.9585 20.256C72.9798 20.2987 72.9798 20.3307 72.9585 20.352C72.9372 20.3733 72.9158 20.3733 72.8945 20.352C72.8945 20.3307 72.9052 20.288 72.9265 20.224C72.9692 20.16 73.0438 20.0533 73.1505 19.904ZM71.7745 20.544C71.8172 20.5867 71.8598 20.544 71.9025 20.416C71.9665 20.288 72.0092 20.2133 72.0305 20.192C71.9878 20.1707 71.9238 20.2133 71.8385 20.32C71.7745 20.4267 71.7532 20.5013 71.7745 20.544ZM72.1265 20C72.1265 20.0213 72.1372 20.0427 72.1585 20.064C72.1798 20.0853 72.1798 20.1067 72.1585 20.128C72.1585 20.1493 72.2225 20.1067 72.3505 20C72.4785 19.872 72.5318 19.8187 72.5105 19.84C72.4892 19.8187 72.4678 19.808 72.4465 19.808C72.3825 19.808 72.3505 19.8187 72.3505 19.84C72.2865 19.904 72.2545 19.9573 72.2545 20H72.1265ZM65.2785 18.464C65.3212 18.4 65.3425 18.3467 65.3425 18.304C65.3638 18.24 65.4065 18.176 65.4705 18.112V18.048C65.4492 18.0693 65.4385 18.0907 65.4385 18.112C65.4172 18.1333 65.3958 18.144 65.3745 18.144C65.3532 18.144 65.3425 18.1547 65.3425 18.176C65.3425 18.1973 65.3318 18.1973 65.3105 18.176C65.2892 18.2187 65.2785 18.2507 65.2785 18.272C65.2998 18.272 65.2892 18.3147 65.2465 18.4V18.432C65.2465 18.4533 65.2572 18.464 65.2785 18.464ZM65.1505 19.744C65.2145 19.7867 65.2572 19.776 65.2785 19.712C65.3212 19.6267 65.3532 19.5733 65.3745 19.552C65.3318 19.5733 65.2892 19.6053 65.2465 19.648C65.2252 19.6907 65.1932 19.7227 65.1505 19.744ZM71.4545 21.696C71.5185 21.7173 71.5718 21.6853 71.6145 21.6L71.5505 21.536C71.5078 21.5787 71.4865 21.6107 71.4865 21.632C71.4865 21.6533 71.4758 21.6747 71.4545 21.696ZM65.2145 18.784C65.2358 18.7627 65.2572 18.752 65.2785 18.752C65.3212 18.752 65.3532 18.7307 65.3745 18.688L65.3105 18.656C65.3318 18.656 65.3532 18.6453 65.3745 18.624L65.4385 18.56C65.3532 18.5813 65.2892 18.6347 65.2465 18.72C65.2465 18.7413 65.2358 18.7627 65.2145 18.784ZM65.0865 19.712C65.1078 19.6693 65.1398 19.6373 65.1825 19.616C65.2252 19.5733 65.2572 19.5307 65.2785 19.488L65.0545 19.68L65.0865 19.712ZM65.0225 19.616L65.0545 19.584C65.0972 19.5413 65.1292 19.52 65.1505 19.52C65.1505 19.4987 65.1398 19.488 65.1185 19.488C65.1185 19.4667 65.1185 19.4453 65.1185 19.424C65.1612 19.36 65.1612 19.36 65.1185 19.424C65.0758 19.488 65.0332 19.552 64.9905 19.616H65.0225ZM72.1265 21.248C72.1478 21.2053 72.1585 21.184 72.1585 21.184C72.2012 21.1413 72.2332 21.0987 72.2545 21.056C72.2972 21.0133 72.3292 20.9707 72.3505 20.928L72.1585 21.12C72.1585 21.1413 72.1478 21.1627 72.1265 21.184C72.1265 21.2053 72.1265 21.2267 72.1265 21.248ZM65.8225 17.504C65.8652 17.5467 65.9292 17.4827 66.0145 17.312L65.9825 17.344C65.9398 17.3867 65.9185 17.3973 65.9185 17.376L65.8225 17.504ZM64.6065 20.192C64.6278 20.192 64.6492 20.1707 64.6705 20.128C64.7345 20.064 64.7452 20.032 64.7025 20.032C64.6812 20.032 64.6598 20.0427 64.6385 20.064C64.6385 20.128 64.6278 20.1707 64.6065 20.192ZM64.7345 19.296C64.6705 19.36 64.6385 19.392 64.6385 19.392V19.456C64.6385 19.456 64.6705 19.424 64.7345 19.36C64.7345 19.3173 64.7345 19.296 64.7345 19.296ZM64.7985 19.744C64.8412 19.7227 64.8625 19.712 64.8625 19.712V19.68C64.9265 19.616 64.9265 19.584 64.8625 19.584C64.8625 19.6267 64.8412 19.68 64.7985 19.744ZM71.3905 21.76C71.4332 21.76 71.4545 21.76 71.4545 21.76V21.696L71.3905 21.76ZM64.4785 19.808C64.4998 19.808 64.5212 19.7973 64.5425 19.776V19.744C64.4998 19.7867 64.4785 19.808 64.4785 19.808ZM73.4065 19.616C73.3852 19.6373 73.3745 19.648 73.3745 19.648V19.68C73.3958 19.6587 73.4065 19.6373 73.4065 19.616ZM76.1938 15.744C76.6844 15.8507 77.1751 16.0213 77.6658 16.256C78.1778 16.4907 78.6364 16.7893 79.0417 17.152C79.4471 17.4933 79.7778 17.8987 80.0338 18.368C80.2898 18.816 80.4178 19.3067 80.4178 19.84C80.4178 20.3947 80.3111 20.9067 80.0978 21.376C79.8844 21.8453 79.5964 22.2613 79.2338 22.624C78.8924 22.9867 78.4764 23.2853 77.9858 23.52C77.4951 23.7333 76.9831 23.872 76.4498 23.936C76.4284 23.9147 76.4178 23.904 76.4178 23.904V23.872C76.3751 23.872 76.3324 23.8827 76.2898 23.904C76.2471 23.904 76.2044 23.904 76.1618 23.904C75.9911 23.904 75.8844 23.904 75.8418 23.904C75.8204 23.8827 75.7884 23.8613 75.7458 23.84C75.7671 23.84 75.7778 23.8293 75.7778 23.808C75.7564 23.7867 75.7244 23.776 75.6818 23.776C75.5751 23.776 75.5111 23.7653 75.4898 23.744L75.5858 23.68C75.5431 23.68 75.4898 23.68 75.4258 23.68C75.3831 23.68 75.3618 23.6693 75.3618 23.648V23.616C75.3191 23.616 75.2977 23.616 75.2977 23.616C75.2977 23.5947 75.2764 23.584 75.2338 23.584C74.9564 25.44 74.6898 27.4453 74.4338 29.6C74.1991 31.7547 73.9858 33.8347 73.7938 35.84C73.7938 36.2027 73.7511 36.5227 73.6658 36.8C73.6018 37.0773 73.3884 37.3333 73.0258 37.568V37.536C73.0258 37.5147 73.0151 37.4827 72.9938 37.44C72.9724 37.4187 72.9618 37.3867 72.9618 37.344C72.8551 37.3867 72.8018 37.44 72.8018 37.504C72.8018 37.5893 72.7804 37.6747 72.7378 37.76C72.6951 37.7387 72.6738 37.7067 72.6738 37.664C72.6951 37.6213 72.6844 37.5893 72.6418 37.568C72.6418 37.632 72.6098 37.664 72.5458 37.664C72.5884 37.6213 72.5991 37.5893 72.5778 37.568C72.5564 37.5467 72.5671 37.504 72.6098 37.44L72.5458 37.504V37.44C72.5244 37.44 72.5031 37.44 72.4818 37.44C72.4818 37.4613 72.4711 37.472 72.4498 37.472V37.44C72.3858 37.504 72.3538 37.5787 72.3538 37.664C72.3538 37.7707 72.3324 37.824 72.2898 37.824C72.2898 37.8027 72.2898 37.7387 72.2898 37.632C72.2898 37.5253 72.2791 37.472 72.2578 37.472C72.2791 37.472 72.2898 37.4613 72.2898 37.44C72.2684 37.44 72.2471 37.4507 72.2258 37.472H72.2578H72.2258C72.2044 37.5147 72.1938 37.5787 72.1938 37.664C72.1938 37.6853 72.2044 37.7067 72.2258 37.728C72.2044 37.7707 72.1831 37.792 72.1618 37.792C72.1618 37.8133 72.1618 37.8667 72.1618 37.952C72.1404 37.9093 72.1298 37.888 72.1298 37.888C72.1298 37.8453 72.1298 37.8133 72.1298 37.792C72.1511 37.792 72.1618 37.7707 72.1618 37.728C72.1618 37.664 72.1511 37.6213 72.1298 37.6C72.1298 37.6213 72.1084 37.632 72.0658 37.632C72.1084 37.6107 72.1298 37.6 72.1298 37.6C72.1084 37.5787 72.0871 37.5787 72.0658 37.6V37.632V37.664H72.1298C72.1298 37.728 72.1084 37.76 72.0658 37.76V37.728C72.0444 37.7707 72.0231 37.8133 72.0018 37.856C72.0018 37.8987 72.0018 37.9627 72.0018 38.048C71.9591 38.0053 71.9058 37.9627 71.8418 37.92C71.7991 37.8773 71.7778 37.8347 71.7778 37.792C71.7351 37.8347 71.6924 37.8453 71.6497 37.824C71.6284 37.824 71.6178 37.8773 71.6178 37.984C71.5538 37.92 71.5004 37.888 71.4578 37.888H71.4258C71.4044 37.8453 71.3938 37.824 71.3938 37.824C71.3298 37.824 71.2978 37.8667 71.2978 37.952C71.2764 37.9093 71.2551 37.8667 71.2338 37.824C71.2338 37.7813 71.2124 37.76 71.1698 37.76C71.1698 37.8027 71.1698 37.8347 71.1698 37.856C71.1911 37.8773 71.2018 37.9093 71.2018 37.952C71.2018 37.9947 71.1591 38.016 71.0738 38.016C71.0311 38.016 71.0098 37.9947 71.0098 37.952C71.0311 37.9307 71.0311 37.9307 71.0098 37.952V38.176C70.9884 38.176 70.9778 38.1653 70.9778 38.144L70.9458 38.112C70.9244 38.1333 70.9138 38.1547 70.9138 38.176C70.9138 38.1973 70.9138 38.208 70.9138 38.208C70.9351 38.2293 70.9458 38.2613 70.9458 38.304C70.9458 38.368 70.9351 38.4 70.9138 38.4C70.8924 38.4213 70.8711 38.4427 70.8498 38.464C70.7858 38.464 70.6898 38.4107 70.5617 38.304C70.4337 38.1973 70.3697 38.08 70.3697 37.952C70.3697 36.2667 70.4444 34.592 70.5938 32.928C70.7644 31.2853 70.9671 29.6107 71.2018 27.904C71.4364 26.048 71.6604 24.096 71.8738 22.048C72.1084 19.9787 72.3751 17.9627 72.6738 16C72.6951 15.808 72.7591 15.6373 72.8658 15.488C72.9724 15.3387 73.0898 15.2213 73.2178 15.136C73.3458 15.0293 73.4738 14.9547 73.6018 14.912C73.7298 14.848 73.8364 14.816 73.9218 14.816C74.0711 14.816 74.2631 14.8267 74.4978 14.848C74.7538 14.8693 74.9991 14.912 75.2338 14.976C75.4898 15.04 75.7031 15.136 75.8738 15.264C76.0658 15.392 76.1724 15.552 76.1938 15.744ZM75.3618 22.624C75.8311 22.624 76.2364 22.528 76.5778 22.336C76.9404 22.144 77.2391 21.8987 77.4738 21.6C77.7084 21.28 77.8791 20.9387 77.9858 20.576C78.1138 20.2133 78.1778 19.8507 78.1778 19.488C78.1778 19.0187 77.9644 18.5813 77.5378 18.176C77.1324 17.7707 76.6204 17.4827 76.0018 17.312C75.9591 17.7813 75.8951 18.2933 75.8098 18.848C75.7458 19.3813 75.6818 19.904 75.6178 20.416C75.5538 20.9067 75.4898 21.3547 75.4258 21.76C75.3831 22.144 75.3618 22.432 75.3618 22.624ZM72.7378 37.856C72.7164 37.8773 72.7057 37.8987 72.7057 37.92V37.984C72.6631 37.9413 72.6418 37.8987 72.6418 37.856H72.7378ZM76.0338 23.84C76.0551 23.8613 76.0871 23.872 76.1298 23.872H76.1618C76.1618 23.8507 76.1191 23.84 76.0338 23.84ZM87.9628 14.464C87.1734 14.464 86.6401 14.6667 86.3628 15.072C86.0854 15.456 85.9468 15.9573 85.9468 16.576C85.9468 17.0453 86.0001 17.5573 86.1068 18.112C86.2134 18.6667 86.3201 19.2213 86.4268 19.776C86.5548 20.3093 86.6721 20.8213 86.7788 21.312C86.8854 21.8027 86.9388 22.2187 86.9388 22.56C86.9388 23.136 86.8428 23.6267 86.6508 24.032C86.4801 24.416 86.2454 24.736 85.9468 24.992C85.6694 25.248 85.3601 25.4293 85.0188 25.536C84.6988 25.6427 84.3788 25.696 84.0588 25.696C83.3548 25.696 82.7041 25.4613 82.1068 24.992C81.5094 24.5227 81.1361 23.904 80.9868 23.136C81.0081 23.072 81.0401 23.04 81.0828 23.04C81.1254 23.04 81.1681 23.0613 81.2108 23.104C81.2748 23.1253 81.3388 23.136 81.4028 23.136C81.4668 23.136 81.5094 23.1253 81.5308 23.104C81.9574 23.3173 82.3734 23.424 82.7788 23.424C83.3974 23.424 83.7068 23.0933 83.7068 22.432C83.7068 22.112 83.6534 21.7493 83.5468 21.344C83.4401 20.9173 83.3228 20.4693 83.1948 20C83.0668 19.5307 82.9494 19.0507 82.8428 18.56C82.7361 18.0693 82.6828 17.6107 82.6828 17.184C82.6828 16.5867 82.8108 16.064 83.0668 15.616C83.3228 15.1467 83.6428 14.7627 84.0268 14.464C84.4108 14.1653 84.8374 13.9413 85.3068 13.792C85.7761 13.6427 86.2241 13.568 86.6508 13.568C86.8214 13.568 87.0134 13.5787 87.2268 13.6C87.4614 13.6213 87.6748 13.664 87.8668 13.728C88.0588 13.792 88.2188 13.8773 88.3468 13.984C88.4961 14.0907 88.5708 14.2187 88.5708 14.368C88.5708 14.496 88.4641 14.56 88.2508 14.56C88.1228 14.56 88.0268 14.528 87.9628 14.464ZM103.72 17.92C103.784 17.8347 103.859 17.728 103.944 17.6C104.03 17.4507 104.115 17.3333 104.2 17.248C104.286 17.1627 104.36 17.12 104.424 17.12C104.488 17.0987 104.542 17.1627 104.584 17.312C104.606 17.376 104.638 17.4293 104.68 17.472C104.723 17.5147 104.755 17.5893 104.776 17.696C104.84 18.0373 104.798 18.3787 104.648 18.72C104.414 19.168 104.094 19.7227 103.688 20.384C103.283 21.024 102.824 21.6533 102.312 22.272C101.8 22.8693 101.246 23.392 100.648 23.84C100.072 24.288 99.4856 24.5227 98.8883 24.544C97.6509 24.5867 96.7656 24.3093 96.2323 23.712C95.6989 23.0933 95.4323 22.112 95.4323 20.768V20.608C95.1123 21.184 94.7816 21.728 94.4403 22.24C94.0989 22.752 93.7363 23.2 93.3523 23.584C92.9896 23.968 92.6056 24.2773 92.2003 24.512C91.8163 24.7253 91.4109 24.832 90.9843 24.832C90.7923 24.832 90.5896 24.7787 90.3763 24.672C90.1629 24.544 89.9496 24.3947 89.7363 24.224C89.5443 24.0533 89.3629 23.872 89.1923 23.68C89.0429 23.4667 88.9363 23.264 88.8723 23.072C88.7869 22.8587 88.7229 22.6133 88.6803 22.336C88.6589 22.0373 88.6483 21.728 88.6483 21.408C88.6483 20.8107 88.6909 20.192 88.7763 19.552C88.8829 18.8907 89.0216 18.2613 89.1923 17.664C89.3629 17.0453 89.5549 16.5013 89.7682 16.032C90.0029 15.5413 90.2483 15.1787 90.5043 14.944C90.8029 14.6453 91.1229 14.4533 91.4643 14.368C91.8056 14.2827 92.1363 14.24 92.4563 14.24C92.4776 14.3253 92.5523 14.4107 92.6803 14.496C92.8083 14.56 92.9363 14.624 93.0643 14.688C93.2136 14.752 93.3416 14.8267 93.4483 14.912C93.5549 14.976 93.6083 15.0507 93.6083 15.136C93.6083 15.3493 93.5763 15.5627 93.5123 15.776C93.4483 15.968 93.3949 16.1173 93.3523 16.224C93.3309 16.288 93.2669 16.48 93.1603 16.8C93.0749 17.12 92.9683 17.5147 92.8403 17.984C92.7123 18.432 92.5843 18.912 92.4563 19.424C92.3496 19.936 92.2536 20.416 92.1683 20.864C92.1043 21.2907 92.0723 21.6533 92.0723 21.952C92.0723 22.2293 92.1363 22.368 92.2643 22.368C92.3283 22.368 92.3709 22.3573 92.3923 22.336C92.6056 22.1227 92.8509 21.8133 93.1283 21.408C93.4056 21.0027 93.6936 20.5653 93.9923 20.096C94.2909 19.6053 94.5896 19.104 94.8883 18.592C95.2083 18.08 95.5069 17.6 95.7843 17.152C96.0616 16.704 96.3069 16.32 96.5203 16C96.7336 15.68 96.9043 15.4667 97.0323 15.36C97.3096 15.104 97.6083 14.9653 97.9283 14.944H97.9603H97.9923C98.0563 14.944 98.1843 14.944 98.3763 14.944C98.5896 14.944 98.7923 14.976 98.9843 15.04C99.1976 15.0827 99.3683 15.168 99.4963 15.296C99.6243 15.4027 99.6563 15.584 99.5923 15.84C99.5496 15.968 99.4749 16.2773 99.3683 16.768C99.2829 17.2373 99.1869 17.7813 99.0803 18.4C98.9736 18.9973 98.8776 19.616 98.7923 20.256C98.7069 20.8747 98.6643 21.4187 98.6643 21.888C98.6643 22.3573 98.6856 22.7307 98.7283 23.008C98.7923 23.264 98.8883 23.392 99.0163 23.392C99.2083 23.392 99.4963 23.2 99.8803 22.816C100.286 22.4107 100.712 21.9307 101.16 21.376C101.63 20.8 102.088 20.2027 102.536 19.584C103.006 18.944 103.4 18.3893 103.72 17.92ZM107.587 28.704C107.501 28.704 107.427 28.6507 107.363 28.544C107.32 28.4373 107.267 28.384 107.203 28.384C107.032 28.3627 106.851 28.4053 106.659 28.512C106.573 28.576 106.477 28.64 106.371 28.704C106.371 28.6827 106.328 28.6507 106.243 28.608C106.093 28.5867 105.987 28.5973 105.923 28.64C105.859 28.704 105.795 28.7147 105.731 28.672C105.56 28.672 105.389 28.64 105.219 28.576C105.069 28.5333 104.941 28.5013 104.835 28.48C104.707 28.3947 104.611 28.448 104.547 28.64C104.035 27.808 103.587 26.7733 103.203 25.536C102.819 24.2773 102.584 22.6773 102.499 20.736C102.456 19.776 102.456 18.7307 102.499 17.6C102.563 16.4693 102.659 15.328 102.787 14.176C102.915 13.024 103.085 11.8827 103.299 10.752C103.512 9.62133 103.768 8.576 104.067 7.616C104.365 6.63467 104.685 5.76 105.027 4.992C105.389 4.20267 105.784 3.584 106.211 3.136C106.488 2.83733 106.733 2.592 106.947 2.4C107.16 2.18667 107.373 2.00533 107.587 1.856C107.821 1.70667 108.077 1.57866 108.355 1.472C108.632 1.36533 108.963 1.26933 109.347 1.184C109.581 1.01333 109.827 0.959999 110.083 1.024C110.36 1.06667 110.595 1.184 110.787 1.376C111 1.568 111.16 1.81333 111.267 2.112C111.395 2.38933 111.437 2.67733 111.395 2.976C111.267 4.256 111.032 5.536 110.691 6.816C110.371 8.07467 109.976 9.32267 109.507 10.56C109.059 11.776 108.557 12.96 108.003 14.112C107.448 15.264 106.883 16.3627 106.307 17.408C106.264 18.1973 106.232 19.0827 106.211 20.064C106.189 21.0453 106.221 22.048 106.307 23.072C106.392 24.0747 106.541 25.0667 106.755 26.048C106.968 27.008 107.288 27.8613 107.715 28.608H107.651C107.608 28.608 107.587 28.64 107.587 28.704ZM109.539 2.976C109.496 3.01867 109.475 3.04 109.475 3.04L109.539 3.072C109.325 3.24267 109.112 3.57333 108.899 4.064C108.685 4.53333 108.472 5.10933 108.259 5.792C108.045 6.45333 107.843 7.17867 107.651 7.968C107.459 8.736 107.277 9.49333 107.107 10.24C106.957 10.9867 106.829 11.6907 106.723 12.352C106.616 12.992 106.541 13.5147 106.499 13.92V14.08C106.669 13.696 106.861 13.216 107.075 12.64C107.309 12.0427 107.533 11.4027 107.747 10.72C107.981 10.016 108.205 9.30133 108.419 8.576C108.653 7.82933 108.856 7.11467 109.027 6.432C109.197 5.728 109.325 5.07733 109.411 4.48C109.517 3.88267 109.56 3.38133 109.539 2.976ZM103.427 19.584C103.427 19.6053 103.437 19.6267 103.459 19.648C103.48 19.6693 103.491 19.6907 103.491 19.712C103.427 19.776 103.395 19.8507 103.395 19.936C103.395 20 103.384 20.0427 103.363 20.064C103.341 20.064 103.341 20.0853 103.363 20.128C103.384 20.256 103.373 20.384 103.331 20.512C103.309 20.6187 103.299 20.7253 103.299 20.832V21.024C103.32 21.1093 103.32 21.184 103.299 21.248C103.277 21.312 103.277 21.3973 103.299 21.504C103.32 21.5467 103.32 21.5787 103.299 21.6C103.299 21.6213 103.299 21.6533 103.299 21.696L103.395 23.072H103.363C103.32 23.072 103.288 23.104 103.267 23.168C103.288 22.8907 103.288 22.7413 103.267 22.72C103.245 22.6773 103.235 22.6027 103.235 22.496V22.208C103.235 22.1227 103.213 22.0053 103.171 21.856C103.149 21.6853 103.128 21.5573 103.107 21.472C103.149 21.4507 103.181 21.408 103.203 21.344C103.224 21.28 103.235 21.2267 103.235 21.184L103.203 20.96C103.245 20.896 103.256 20.8107 103.235 20.704C103.235 20.5973 103.224 20.5013 103.203 20.416C103.096 20.4373 103.064 20.4693 103.107 20.512C103.149 20.5333 103.171 20.6293 103.171 20.8C103.128 20.7787 103.107 20.768 103.107 20.768V20.864L103.139 21.216C103.16 21.2587 103.128 21.3547 103.043 21.504C103.064 21.4187 103.064 21.3333 103.043 21.248C103.043 21.1413 103.032 21.0667 103.011 21.024V20.928C102.968 20.864 102.968 20.8 103.011 20.736C102.904 20.7787 102.872 20.8427 102.915 20.928V21.248C102.915 21.44 102.947 21.7067 103.011 22.048C103.096 22.368 103.128 22.56 103.107 22.624C103.128 22.624 103.139 22.6453 103.139 22.688C103.139 22.7093 103.128 22.72 103.107 22.72C103.107 22.72 103.107 22.7307 103.107 22.752V22.784C103.171 22.9547 103.181 23.0613 103.139 23.104C103.075 23.104 103.053 23.136 103.075 23.2C103.117 23.264 103.128 23.296 103.107 23.296C103.149 23.296 103.181 23.3173 103.203 23.36C103.224 23.3813 103.245 23.6267 103.267 24.096C103.309 24.1813 103.331 24.2987 103.331 24.448C103.352 24.5973 103.416 24.6507 103.523 24.608C103.416 24.3093 103.363 24.0747 103.363 23.904C103.363 23.712 103.341 23.4987 103.299 23.264C103.341 23.264 103.373 23.328 103.395 23.456C103.437 23.584 103.469 23.744 103.491 23.936C103.533 24.1067 103.565 24.2987 103.587 24.512C103.629 24.7253 103.672 24.9173 103.715 25.088C103.651 25.1093 103.608 25.088 103.587 25.024C103.587 24.96 103.565 24.9387 103.523 24.96C103.544 25.0667 103.565 25.1733 103.587 25.28C103.629 25.3653 103.661 25.4293 103.683 25.472L103.747 25.408C103.832 25.5787 103.907 25.7707 103.971 25.984C104.035 26.176 104.109 26.3573 104.195 26.528V26.464C104.28 26.528 104.323 26.624 104.323 26.752L104.227 26.656L104.259 26.72L104.323 26.88C104.344 26.8587 104.365 26.848 104.387 26.848C104.429 26.912 104.493 27.008 104.579 27.136C104.664 27.264 104.685 27.296 104.643 27.232L104.419 26.496H104.451C104.472 26.4747 104.483 26.4533 104.483 26.432C104.483 26.4747 104.504 26.5387 104.547 26.624C104.611 26.7093 104.632 26.8053 104.611 26.912C104.653 26.848 104.675 26.816 104.675 26.816C104.675 26.7947 104.675 26.7627 104.675 26.72C104.653 26.6133 104.568 26.4747 104.419 26.304C104.291 26.112 104.216 25.9413 104.195 25.792C104.195 25.7707 104.173 25.7387 104.131 25.696C104.109 25.632 104.099 25.5893 104.099 25.568C103.992 25.3333 103.875 24.8853 103.747 24.224C103.619 23.5413 103.512 22.432 103.427 20.896C103.427 20.512 103.491 20.0427 103.619 19.488L103.427 19.584ZM120.395 16.704C120.395 16.7467 120.406 16.8 120.427 16.864C120.449 16.9067 120.491 16.9387 120.555 16.96C120.491 17.024 120.459 17.0667 120.459 17.088C120.459 17.1093 120.47 17.1307 120.491 17.152C120.513 17.1733 120.523 17.2053 120.523 17.248C120.523 17.2907 120.513 17.3227 120.491 17.344C120.491 17.3653 120.491 17.376 120.491 17.376C120.513 17.3547 120.523 17.3547 120.523 17.376C120.523 17.44 120.513 17.5253 120.491 17.632C120.47 17.7387 120.417 17.8347 120.331 17.92C120.331 17.8987 120.331 17.8667 120.331 17.824C120.331 17.7813 120.353 17.7387 120.395 17.696H120.363C120.321 17.696 120.278 17.76 120.235 17.888C120.193 18.016 120.022 18.368 119.723 18.944C119.83 18.88 119.926 18.7733 120.011 18.624C120.097 18.4533 120.182 18.304 120.267 18.176V18.24C120.267 18.2827 120.246 18.3253 120.203 18.368C120.182 18.3893 120.171 18.4213 120.171 18.464C120.278 18.3573 120.353 18.24 120.395 18.112C120.438 17.9627 120.513 17.7707 120.619 17.536C120.641 17.5573 120.651 17.5787 120.651 17.6V17.632V17.76C120.673 17.76 120.683 17.7813 120.683 17.824C120.683 17.888 120.651 17.9413 120.587 17.984C120.545 18.0267 120.523 18.0693 120.523 18.112C120.523 18.1333 120.545 18.1653 120.587 18.208C120.523 18.4427 120.395 18.72 120.203 19.04C120.033 19.3387 119.83 19.6587 119.595 20C119.361 20.32 119.115 20.64 118.859 20.96C118.625 21.28 118.422 21.5467 118.251 21.76C118.23 21.7813 118.209 21.792 118.187 21.792C118.166 21.792 118.187 21.7173 118.251 21.568C118.337 21.4187 118.411 21.3227 118.475 21.28V21.344C118.689 21.0667 118.934 20.7253 119.211 20.32C119.51 19.9147 119.766 19.5413 119.979 19.2H119.947V19.136L120.075 19.008C120.118 18.9653 120.15 18.9227 120.171 18.88C120.171 18.9013 120.161 18.9227 120.139 18.944C120.203 18.88 120.225 18.816 120.203 18.752C120.203 18.688 120.225 18.6453 120.267 18.624V18.528C120.225 18.528 120.161 18.6027 120.075 18.752C120.011 18.9013 119.873 19.1147 119.659 19.392H119.723C119.702 19.4773 119.627 19.5733 119.499 19.68C119.393 19.7653 119.254 19.968 119.083 20.288C119.062 20.288 119.051 20.2773 119.051 20.256C119.03 20.256 119.019 20.2347 119.019 20.192C119.041 20.192 119.009 20.256 118.923 20.384C118.838 20.512 118.785 20.608 118.763 20.672L118.731 20.608C118.71 20.6507 118.667 20.736 118.603 20.864C118.561 20.9707 118.518 21.0453 118.475 21.088H118.443C118.358 21.216 118.283 21.3013 118.219 21.344L118.251 21.408C118.251 21.472 118.219 21.5467 118.155 21.632C118.113 21.7173 118.059 21.8133 117.995 21.92C117.931 22.0053 117.878 22.08 117.835 22.144C117.793 22.1867 117.771 22.208 117.771 22.208C117.473 22.5493 117.131 22.912 116.747 23.296C116.363 23.6587 115.947 23.9893 115.499 24.288C115.073 24.5867 114.635 24.8427 114.187 25.056C113.739 25.248 113.323 25.344 112.939 25.344H112.907C112.886 25.344 112.875 25.3333 112.875 25.312C112.897 25.312 112.907 25.3013 112.907 25.28V25.248C112.779 25.248 112.662 25.2587 112.555 25.28C112.449 25.3013 112.342 25.312 112.235 25.312C112.193 25.312 112.129 25.3013 112.043 25.28C111.958 25.2587 111.894 25.248 111.851 25.248C111.83 25.248 111.819 25.2587 111.819 25.28C111.841 25.3013 111.83 25.312 111.787 25.312C111.766 25.2693 111.702 25.248 111.595 25.248H111.467C111.361 25.2053 111.254 25.1733 111.147 25.152C111.062 25.1307 110.966 25.0987 110.859 25.056C110.987 25.184 111.147 25.2693 111.339 25.312C111.531 25.3333 111.723 25.344 111.915 25.344H112.267C112.225 25.3867 112.193 25.3973 112.171 25.376C112.15 25.3547 112.118 25.3653 112.075 25.408C112.182 25.408 112.235 25.408 112.235 25.408C112.257 25.3867 112.267 25.3973 112.267 25.44C112.097 25.44 111.883 25.4293 111.627 25.408C111.393 25.3653 111.169 25.312 110.955 25.248C110.998 25.2907 111.041 25.3227 111.083 25.344C111.147 25.344 111.19 25.3653 111.211 25.408C111.105 25.408 111.019 25.3973 110.955 25.376C110.891 25.3333 110.827 25.2907 110.763 25.248H110.731C110.753 25.2907 110.763 25.312 110.763 25.312H110.731C110.71 25.312 110.699 25.3013 110.699 25.28L110.667 25.248C110.539 25.2693 110.422 25.248 110.315 25.184C110.23 25.0987 110.134 25.0453 110.027 25.024C109.473 24.512 109.067 23.9467 108.811 23.328C108.555 22.688 108.427 22.0267 108.427 21.344C108.427 20.6613 108.577 19.936 108.875 19.168C109.195 18.3787 109.611 17.6533 110.123 16.992C110.657 16.3093 111.275 15.744 111.979 15.296C112.683 14.848 113.43 14.624 114.219 14.624C114.369 14.624 114.486 14.6453 114.571 14.688C114.657 14.7307 114.731 14.784 114.795 14.848C114.859 14.8907 114.923 14.944 114.987 15.008C115.073 15.072 115.169 15.136 115.275 15.2C115.254 15.2 115.243 15.1893 115.243 15.168V15.104C115.265 15.1467 115.275 15.168 115.275 15.168H115.307C115.329 15.168 115.339 15.1573 115.339 15.136C115.339 15.1147 115.329 15.104 115.307 15.104C115.307 15.0827 115.307 15.0613 115.307 15.04L115.403 15.168C115.425 15.168 115.435 15.1573 115.435 15.136V15.072C115.478 15.1787 115.499 15.296 115.499 15.424C115.499 15.5307 115.521 15.6267 115.563 15.712C115.606 15.84 115.681 16 115.787 16.192C115.915 16.3627 115.979 16.6613 115.979 17.088C115.979 17.344 115.926 17.6533 115.819 18.016C115.713 18.3787 115.521 18.72 115.243 19.04C114.987 19.36 114.614 19.6373 114.123 19.872C113.654 20.1067 113.046 20.224 112.299 20.224C112.065 20.224 111.841 20.2133 111.627 20.192C111.414 20.1707 111.222 20.1387 111.051 20.096C110.923 20.48 110.859 20.8213 110.859 21.12C110.859 21.7387 111.051 22.208 111.435 22.528C111.819 22.848 112.321 23.008 112.939 23.008C113.601 23.008 114.219 22.8373 114.795 22.496C115.371 22.1547 115.937 21.7067 116.491 21.152C117.046 20.576 117.611 19.9253 118.187 19.2C118.785 18.4533 119.425 17.6747 120.107 16.864C120.129 16.864 120.171 16.8427 120.235 16.8C120.299 16.736 120.353 16.704 120.395 16.704ZM112.779 16.64C112.502 16.9387 112.246 17.28 112.011 17.664C111.777 18.0267 111.595 18.3893 111.467 18.752C111.595 18.6667 111.798 18.5387 112.075 18.368C112.374 18.1973 112.683 17.9947 113.003 17.76C113.323 17.5253 113.622 17.2693 113.899 16.992C114.177 16.6933 114.358 16.384 114.443 16.064C114.379 16.0427 114.273 16.032 114.123 16.032C113.867 16.032 113.622 16.096 113.387 16.224C113.153 16.352 112.95 16.4907 112.779 16.64ZM119.115 19.68C119.137 19.5947 119.169 19.5307 119.211 19.488C119.254 19.424 119.297 19.36 119.339 19.296C119.233 19.3387 119.158 19.424 119.115 19.552C119.094 19.68 119.041 19.7973 118.955 19.904V19.968C118.955 19.9467 118.913 20 118.827 20.128C118.742 20.256 118.678 20.352 118.635 20.416C118.699 20.3093 118.763 20.1813 118.827 20.032C118.913 19.8827 118.966 19.744 118.987 19.616C118.945 19.68 118.913 19.712 118.891 19.712V19.616C118.806 19.7227 118.742 19.8507 118.699 20C118.657 20.1493 118.571 20.3093 118.443 20.48L118.411 20.416C118.369 20.5227 118.326 20.5973 118.283 20.64C118.241 20.6827 118.219 20.7467 118.219 20.832V20.864C118.219 20.864 118.241 20.8427 118.283 20.8C118.283 20.7787 118.294 20.768 118.315 20.768H118.379C118.337 20.7893 118.315 20.8213 118.315 20.864C118.315 20.8853 118.294 20.9173 118.251 20.96C118.337 20.9173 118.39 20.864 118.411 20.8C118.433 20.7147 118.475 20.6507 118.539 20.608C118.561 20.6293 118.582 20.64 118.603 20.64C118.603 20.5973 118.625 20.544 118.667 20.48C118.71 20.4373 118.742 20.384 118.763 20.32C118.806 20.256 118.859 20.1813 118.923 20.096C118.902 20.096 118.902 20.1067 118.923 20.128C118.966 20.128 118.977 20.1493 118.955 20.192C118.977 20.1493 118.998 20.1173 119.019 20.096C119.041 20.0747 119.062 20.0427 119.083 20V19.936C119.083 19.8933 119.083 19.8613 119.083 19.84C119.105 19.8187 119.115 19.7867 119.115 19.744V19.68ZM119.627 18.72C119.606 18.72 119.595 18.7093 119.595 18.688C119.595 18.6453 119.659 18.5387 119.787 18.368C119.937 18.176 120.033 18.0373 120.075 17.952C119.969 18.0587 119.798 18.24 119.563 18.496C119.35 18.7307 119.243 18.9653 119.243 19.2V19.296C119.265 19.2747 119.286 19.232 119.307 19.168C119.35 19.0827 119.393 19.04 119.435 19.04C119.457 19.04 119.467 19.072 119.467 19.136C119.51 19.0507 119.531 18.976 119.531 18.912C119.531 18.848 119.563 18.784 119.627 18.72ZM113.995 14.976C113.91 14.976 113.825 14.9867 113.739 15.008C113.718 14.9867 113.707 14.976 113.707 14.976V14.944C113.665 14.9653 113.558 15.008 113.387 15.072C113.217 15.1147 113.089 15.1787 113.003 15.264C113.217 15.2213 113.398 15.1573 113.547 15.072C113.59 15.072 113.622 15.0827 113.643 15.104C113.686 15.104 113.729 15.104 113.771 15.104C113.814 15.104 113.857 15.0933 113.899 15.072C113.942 15.0507 113.963 15.0293 113.963 15.008L113.995 14.976ZM113.515 14.944C113.195 15.008 112.918 15.1573 112.683 15.392C112.897 15.2427 113.131 15.1253 113.387 15.04C113.643 14.9333 113.91 14.88 114.187 14.88C114.145 14.8587 114.102 14.848 114.059 14.848C114.017 14.8693 113.963 14.88 113.899 14.88C113.878 14.8587 113.846 14.848 113.803 14.848C113.761 14.848 113.697 14.8587 113.611 14.88C113.547 14.9013 113.515 14.9227 113.515 14.944ZM115.499 15.776C115.499 15.8827 115.521 15.9787 115.563 16.064C115.606 16.128 115.649 16.2027 115.691 16.288C115.649 16.2027 115.627 16.1173 115.627 16.032C115.67 16.0747 115.702 16.1387 115.723 16.224C115.745 16.288 115.777 16.3413 115.819 16.384C115.819 16.32 115.777 16.2133 115.691 16.064C115.627 15.9147 115.563 15.8187 115.499 15.776ZM113.899 14.72C113.899 14.7627 113.857 14.784 113.771 14.784C113.686 14.7627 113.654 14.7733 113.675 14.816L114.219 14.72C114.113 14.6987 114.027 14.688 113.963 14.688L113.899 14.72ZM110.155 25.152C110.134 25.1307 110.102 25.12 110.059 25.12C110.038 25.0987 110.027 25.0667 110.027 25.024C110.07 25.0453 110.091 25.0667 110.091 25.088C110.113 25.1093 110.134 25.1307 110.155 25.152Z" fill="white"/>
</svg>
